<svg width="436" height="360" viewBox="0 0 436 360" fill="none" xmlns="http://www.w3.org/2000/svg">
<!-- XCODE: 深色首页保留原渐变、模糊和留白，品牌轮廓改为断笔 X。 -->
<g opacity="0.15" filter="url(#filter0_f_5488_3806)">
<path d="M258.3858 21L416.94 21L177.5542 340L19 340Z M19 21L146.4652 21L191.5443 80.9954L127.8117 165.867Z M308.1283 195.133L416.94 340L289.4748 340L244.3957 280.0046Z" fill="url(#paint0_linear_5488_3806)"/>
</g>
<path d="M258.3858 21L416.94 21L177.5542 340L19 340Z M19 21L146.4652 21L191.5443 80.9954L127.8117 165.867Z M308.1283 195.133L416.94 340L289.4748 340L244.3957 280.0046Z" stroke="url(#paint1_linear_5488_3806)"/>
<defs>
<filter id="filter0_f_5488_3806" x="16.6" y="18.6" width="402.74" height="323.8" filterUnits="userSpaceOnUse" color-interpolation-filters="sRGB">
<feFlood flood-opacity="0" result="BackgroundImageFix"/>
<feBlend mode="normal" in="SourceGraphic" in2="BackgroundImageFix" result="shape"/>
<feGaussianBlur stdDeviation="1.2" result="effect1_foregroundBlur_5488_3806"/>
</filter>
<linearGradient id="paint0_linear_5488_3806" x1="217.97" y1="20.5" x2="217.97" y2="340.5" gradientUnits="userSpaceOnUse">
<stop stop-color="#444444" stop-opacity="0.6"/>
<stop offset="0.5" stop-color="#2A2A2A" stop-opacity="0.3"/>
<stop offset="1" stop-color="#1A1A1A" stop-opacity="0.1"/>
</linearGradient>
<linearGradient id="paint1_linear_5488_3806" x1="217.97" y1="20.5" x2="217.97" y2="340.5" gradientUnits="userSpaceOnUse">
<stop stop-color="#444444" stop-opacity="0.6"/>
<stop offset="0.5" stop-color="#2A2A2A" stop-opacity="0.3"/>
<stop offset="1" stop-color="#1A1A1A" stop-opacity="0.1"/>
</linearGradient>
</defs>
</svg>
